<svg width="24" height="25" viewBox="0 0 24 25" fill="none" xmlns="http://www.w3.org/2000/svg">
<path d="M11.02 20.8101H7.5C6.75 20.8101 6.2 20.7801 5.73 20.7101C2.4 20.3401 1.75 18.3601 1.75 15.0601V10.0601C1.75 6.76006 2.41 4.77006 5.76 4.40006C6.2 4.34006 6.75 4.31006 7.5 4.31006H10.96C11.37 4.31006 11.71 4.65006 11.71 5.06006C11.71 5.47006 11.37 5.81006 10.96 5.81006H7.5C6.82 5.81006 6.34 5.84006 5.95 5.89006C3.92 6.11006 3.25 6.75006 3.25 10.0601V15.0601C3.25 18.3701 3.92 19.0001 5.92 19.2301C6.34 19.2901 6.82 19.3101 7.5 19.3101H11.02C11.43 19.3101 11.77 19.6501 11.77 20.0601C11.77 20.4701 11.43 20.8101 11.02 20.8101Z" fill="#005666"/>
<path d="M16.4995 20.8101H15.0195C14.6095 20.8101 14.2695 20.4701 14.2695 20.0601C14.2695 19.6501 14.6095 19.3101 15.0195 19.3101H16.4995C17.1795 19.3101 17.6595 19.2801 18.0495 19.2301C20.0795 19.0101 20.7495 18.3701 20.7495 15.0601V10.0601C20.7495 6.75006 20.0795 6.12006 18.0795 5.89006C17.6595 5.83006 17.1795 5.81006 16.4995 5.81006H15.0195C14.6095 5.81006 14.2695 5.47006 14.2695 5.06006C14.2695 4.65006 14.6095 4.31006 15.0195 4.31006H16.4995C17.2495 4.31006 17.7995 4.34006 18.2695 4.41006C21.5995 4.78006 22.2495 6.76006 22.2495 10.0601V15.0601C22.2495 18.3601 21.5895 20.3501 18.2395 20.7201C17.7995 20.7801 17.2495 20.8101 16.4995 20.8101Z" fill="#005666"/>
<path d="M15 23.3101C14.59 23.3101 14.25 22.9701 14.25 22.5601V2.56006C14.25 2.15006 14.59 1.81006 15 1.81006C15.41 1.81006 15.75 2.15006 15.75 2.56006V22.5601C15.75 22.9701 15.41 23.3101 15 23.3101Z" fill="#005666"/>
<path d="M6.69922 13.56C6.56922 13.56 6.43922 13.53 6.31922 13.48C6.19922 13.43 6.08922 13.36 5.98922 13.27C5.89922 13.17 5.81922 13.06 5.76922 12.94C5.71922 12.82 5.69922 12.69 5.69922 12.56C5.69922 12.3 5.80922 12.04 5.98922 11.85C6.35922 11.48 7.02922 11.48 7.40922 11.85C7.58922 12.04 7.69922 12.3 7.69922 12.56C7.69922 12.69 7.66922 12.82 7.61922 12.94C7.56922 13.06 7.49922 13.17 7.40922 13.27C7.30922 13.36 7.19922 13.43 7.07922 13.48C6.95922 13.53 6.82922 13.56 6.69922 13.56Z" fill="#005666"/>
<path d="M10.6992 13.56C10.5692 13.56 10.4392 13.53 10.3192 13.48C10.1992 13.43 10.0892 13.36 9.98922 13.27C9.89922 13.17 9.82922 13.06 9.76922 12.94C9.72922 12.82 9.69922 12.69 9.69922 12.56C9.69922 12.3 9.80922 12.04 9.98922 11.85C10.3592 11.48 11.0392 11.48 11.4092 11.85C11.5892 12.04 11.6992 12.3 11.6992 12.56C11.6992 12.69 11.6692 12.82 11.6192 12.94C11.5692 13.06 11.4992 13.17 11.4092 13.27C11.3092 13.36 11.1992 13.43 11.0792 13.48C10.9592 13.53 10.8292 13.56 10.6992 13.56Z" fill="#005666"/>
</svg>
